<?xml version="1.0" encoding="UTF-8" standalone="no"?>
<!-- Created with Inkscape (http://www.inkscape.org/) -->

<svg
   width="677.55078mm"
   height="268.95007mm"
   viewBox="0 0 677.55078 268.95007"
   version="1.1"
   id="svg1"
   xml:space="preserve"
   xmlns:inkscape="http://www.inkscape.org/namespaces/inkscape"
   xmlns:sodipodi="http://sodipodi.sourceforge.net/DTD/sodipodi-0.dtd"
   xmlns="http://www.w3.org/2000/svg"
   xmlns:svg="http://www.w3.org/2000/svg"><sodipodi:namedview
     id="namedview1"
     pagecolor="#ffffff"
     bordercolor="#000000"
     borderopacity="0.25"
     inkscape:showpageshadow="2"
     inkscape:pageopacity="0.0"
     inkscape:pagecheckerboard="0"
     inkscape:deskcolor="#d1d1d1"
     inkscape:document-units="mm"
     inkscape:zoom="0.17386018"
     inkscape:cx="284.71155"
     inkscape:cy="1138.8462"
     inkscape:window-width="1362"
     inkscape:window-height="755"
     inkscape:window-x="0"
     inkscape:window-y="26"
     inkscape:window-maximized="0"
     inkscape:current-layer="layer1"><inkscape:page
       x="0"
       y="0"
       width="677.55078"
       height="268.95007"
       id="page2"
       margin="0"
       bleed="0" /></sodipodi:namedview><defs
     id="defs1" /><g
     inkscape:label="Capa 1"
     inkscape:groupmode="layer"
     id="layer1"
     transform="translate(200.86596,-318.16348)"><path
       style="fill:#F4F4F4;stroke:none"
       d="m 241.15704,498.75492 c 3.57778,-1.03069 6.958,-3.23304 10.31875,-4.82047 1.22725,-0.5797 3.1531,-1.01816 3.98509,-2.162 0.96067,-1.32074 1.30296,-3.65215 1.96865,-5.18836 2.48912,-5.74419 3.95153,-11.6479 5.39272,-17.72709 4.69203,-19.79173 6.73293,-39.96753 9.40334,-60.06041 1.08943,-8.19716 1.99348,-16.8409 3.95547,-24.87084 0.37085,-1.51772 1.2665,-7.68848 3.83462,-7.02166 0.84284,0.21885 1.20187,1.54072 1.41865,2.25916 0.69191,2.29329 1.02374,4.77907 1.37375,7.14375 1.47123,9.93937 2.49381,19.93349 3.96875,29.89792 1.91151,12.91386 4.00635,25.9141 5.4009,38.89375 0.82295,7.65935 1.14518,15.39431 2.27366,23.01875 1.35735,9.17053 3.7396,18.15109 5.49521,27.25208 2.38225,12.34951 4.45664,24.74055 7.09169,37.04167 2.51628,11.74663 4.84602,23.77466 6.12931,35.71875 0.2941,2.73745 2.02348,9.92809 6.04133,8.88008 5.97789,-1.55927 4.47324,-12.2557 3.76947,-16.553 -2.94007,-17.9526 -4.66112,-35.99754 -7.32197,-53.975 -3.15252,-21.29934 -3.9192,-42.934 -6.57679,-64.29375 -3.56942,-28.68835 -9.31126,-57.06833 -13.07934,-85.725 -1.60795,-12.22866 -1.8985,-24.66054 -4.4828,-36.77708 -0.64037,-3.00232 -1.41448,-5.90324 -2.62397,-8.73125 -0.36106,-0.84421 -0.77566,-2.40789 -1.75513,-2.73525 -1.72095,-0.57517 -4.01144,3.42731 -4.79334,4.58734 -3.70023,5.48952 -5.79218,11.75579 -7.85033,17.99166 -4.84948,14.69324 -7.87843,29.91105 -11.22499,44.97917 -2.6707,12.02501 -5.77397,23.87813 -8.19553,35.98333 -3.64848,18.23849 -8.15024,36.15898 -11.33748,54.50417 -0.8694,5.00402 -1.35926,10.05066 -2.05052,15.08125 -0.3288,2.39266 -1.23246,5.02907 -0.52917,7.40833 m -103.45208,88.10625 c 4.45573,-19.43575 0.2848,-39.06758 -2.57397,-58.47292 -1.49542,-10.15102 -1.73937,-20.2973 -3.5337,-30.42708 -1.29466,-7.30882 -2.47744,-14.6439 -3.74806,-21.96042 -0.35922,-2.06844 -1.72803,-6.29218 0.60981,-7.58881 1.6623,-0.92192 5.29144,-0.10644 7.12925,0.14599 4.75103,0.65252 10.70959,-0.9294 12.84169,4.79699 2.35477,6.32442 1.11837,14.00422 2.36123,20.6375 2.14412,11.44342 3.59848,22.95412 5.47295,34.39583 0.43967,2.68363 1.41212,5.21136 1.73817,7.9375 0.78609,6.57289 0.90718,13.25402 1.77534,19.84375 0.87934,6.67452 0.57254,15.91613 4.4134,21.69584 1.98796,2.99146 5.72219,5.78273 9.22773,3.44754 3.22994,-2.1516 2.40218,-8.81955 2.38596,-12.17879 -0.0577,-11.97615 -0.74575,-24.04206 -1.56363,-35.98334 -1.10294,-16.103 -2.53492,-32.28095 -2.93021,-48.41875 -0.46629,-19.0354 0.28948,-38.13058 -0.54345,-57.15 -0.2941,-6.71567 -1.09408,-13.4017 -1.55342,-20.10833 -0.55252,-8.06692 -0.67083,-16.32365 -1.72348,-24.34167 -1.08323,-8.25103 -0.59243,-16.82382 -0.95643,-25.13541 -0.23833,-5.44184 -1.12719,-11.25642 -1.76614,-16.66875 -0.38496,-3.26095 -0.71972,-12.44748 -5.10263,-12.93581 -3.91626,-0.43634 -4.96449,3.47135 -5.81799,6.58581 -2.02371,7.38458 -2.59984,16.18499 -2.64887,23.8125 -0.0748,11.62883 -2.62093,23.27313 -2.90634,34.925 -0.2872,11.72438 -0.26846,23.46312 -0.26846,35.18958 0,6.2929 0.5456,13.08836 -0.34401,19.31458 -0.31283,2.18949 -1.1632,6.04805 -2.89042,7.55818 -2.16899,1.89641 -8.42836,1.30112 -11.05307,0.77252 -2.72946,-0.54968 -5.70311,-1.29476 -7.53204,-3.57881 -1.3201,-1.64862 -1.3794,-3.81305 -1.70713,-5.81022 -0.72179,-4.3986 -0.96105,-8.80592 -1.38909,-13.22917 -2.20397,-22.77519 -1.62025,-45.45723 -2.34776,-68.2625 -0.2049,-6.42336 -0.45524,-13.64206 -2.29592,-19.84374 -0.54635,-1.84077 -1.42372,-5.08603 -3.26033,-6.03704 -2.08069,-1.0774 -8.49622,0.88843 -10.56802,1.80226 -3.86136,1.70318 -2.30639,9.85785 -2.38901,13.23061 -0.19711,8.04686 -0.52409,16.28752 0.0275,24.34166 0.36855,5.38117 1.2998,10.75253 1.56383,16.13959 0.69211,14.12133 2.9732,28.22334 3.94508,42.33333 1.30654,18.96909 2.17089,38.36441 5.33678,57.15 2.6771,15.88521 6.97984,31.38681 10.44959,47.09583 2.59277,11.73858 5.8259,23.28183 7.4406,35.18959 0.4531,3.34141 3.12471,9.06929 6.69462,9.78958 m 204.78749,-4.7625 c 10.17516,-3.94204 8.11437,-17.64458 6.99144,-26.19375 -2.04103,-15.53912 -3.4974,-31.09274 -6.21997,-46.56667 -1.14935,-6.53241 -4.72584,-15.08861 -3.15272,-21.69583 h 0.52917 c 0.67625,2.45274 2.40709,4.46171 3.70417,6.61458 4.03412,6.69569 9.13064,12.30329 13.79179,18.52084 3.28804,4.38597 5.82917,9.21773 8.87517,13.75833 6.49734,9.68542 13.13369,19.19654 20.09755,28.575 3.59945,4.84754 6.71806,11.27073 11.21436,15.29684 3.21357,2.8775 6.48501,-0.65789 6.5766,-4.18434 0.0747,-2.87681 -1.42956,-5.88987 -2.53744,-8.46667 -2.80157,-6.51633 -6.62059,-11.98052 -10.73436,-17.72708 -11.10881,-15.51811 -22.05227,-31.67772 -31.67629,-48.15417 -2.48377,-4.25222 -4.91314,-8.42145 -7.78299,-12.43541 -1.15329,-1.61305 -3.53964,-3.46757 -3.56877,-5.55625 -0.0299,-2.14545 1.13584,-4.32598 1.71669,-6.35 1.47626,-5.14442 3.15652,-10.24557 4.78452,-15.34584 7.73933,-24.24653 20.65695,-50.08983 16.60752,-76.2 -1.11809,-7.20908 -1.44094,-15.00764 -6.28282,-20.90208 -3.38507,-4.12094 -7.56382,-7.42245 -11.55653,-10.92325 -4.49592,-3.94199 -9.21507,-8.31162 -15.08125,-10.05273 -4.31017,-1.27928 -9.10768,-3.04547 -12.58386,0.87826 -4.7699,5.38397 -4.61406,12.56372 -4.61406,19.30397 0,13.33515 1.5231,26.63613 1.58731,39.95208 0.13335,27.65608 1.86962,55.29834 4.54303,82.81459 1.64322,16.91285 4.87412,33.69847 7.02328,50.53541 1.41012,11.0472 1.86278,22.25349 3.175,33.3375 0.81307,6.86774 1.78956,14.6958 4.57346,21.16667 m -114.03541,-2.38125 2.11667,-5.02708 h 0.26458 v 2.64583 c 1.87094,-1.09925 3.20749,-3.60593 4.55059,-5.29167 2.8289,-3.55057 5.75385,-6.91713 8.75412,-10.31875 10.02442,-11.36542 20.51319,-21.7119 26.99341,-35.71875 2.35367,-5.08738 5.20708,-11.46277 4.03286,-17.19791 -1.54687,-7.55516 -8.41812,-3.55649 -12.58098,-0.87521 -7.51114,4.83792 -13.3613,10.71369 -19.07125,17.54396 -1.92401,2.3015 -4.19629,4.26986 -5.72446,6.87916 -1.2131,2.07136 -2.90903,4.87484 -4.65266,6.52456 -0.86054,0.81418 -2.25884,1.44826 -2.90941,0.0735 -1.87211,-3.95609 -1.23956,-9.99317 -1.53256,-14.27096 -0.7953,-11.61186 -1.05885,-23.29438 -0.77395,-34.925 0.26355,-10.75858 1.27479,-21.53579 1.3266,-32.27917 0.11665,-24.19216 -1.32273,-48.31028 -1.32273,-72.49583 0,-12.50345 1.50828,-25.16266 -0.41687,-37.57083 -0.72443,-4.66926 -1.945,-11.24686 -7.25604,-12.75594 -7.02703,-1.99665 -6.83247,8.55146 -7.40834,12.75594 -0.66675,4.86803 -0.4835,9.67649 -0.81742,14.55208 -0.70942,10.35773 -1.03466,20.82835 -1.03466,31.22083 0,26.11989 0.67925,52.19849 1.31904,78.31667 0.21355,8.71859 -0.30357,17.49628 0.29213,26.19375 0.90935,13.27671 2.67704,26.5217 4.62572,39.6875 2.14493,14.49163 5.23521,28.90266 11.22561,42.33333 M 187.97598,334.86861 c -3.77435,0.98721 -4.2966,7.87297 -4.99562,10.95715 -2.61486,11.53736 -2.4129,23.94708 -2.4129,35.71874 0,8.55187 -0.89459,17.08278 -0.51877,25.66459 0.57031,13.02315 2.51538,25.89774 3.40551,38.89375 1.90986,27.88466 3.79592,55.81757 6.91611,83.60833 1.53127,13.63862 2.48293,27.45743 4.72798,41.01042 0.60316,3.64112 1.34065,5.40881 3.83872,8.19166 1.052,1.17194 2.67089,2.6261 4.38461,2.28326 5.39063,-1.0784 3.22962,-8.94549 2.89062,-12.59159 -1.25474,-13.49509 -2.35664,-27.00284 -3.63944,-40.48125 -1.01179,-10.631 -1.19098,-21.36078 -1.92069,-32.01458 -0.89519,-13.07004 -2.49729,-26.09177 -3.39223,-39.15834 -0.52335,-7.64099 -0.22809,-15.36563 -0.56324,-23.01875 -0.80719,-18.43159 -1.04793,-36.8554 -1.04793,-55.29791 0,-11.38424 0.61559,-22.90768 -1.4846,-34.13125 -0.55236,-2.95179 -1.31898,-10.9078 -6.18813,-9.63423 M 8.8528755,480.49867 h -0.529167 c -6.8894686,-17.86002 -14.4694326,-35.53247 -19.7322735,-53.975 -3.06803,-10.75126 -7.045985,-21.25246 -10.128274,-32.01458 -2.384884,-8.32703 -3.582017,-17.09161 -6.919604,-25.13542 -1.734051,-4.17918 -3.44882,-8.85346 -5.835109,-12.7 -0.582845,-0.93951 -1.944439,-3.54972 -3.348956,-3.2195 -0.789002,0.1855 -1.011388,1.5238 -1.241041,2.16117 -0.887366,2.46275 -1.2564,5.07579 -1.497874,7.67291 -0.962199,10.34886 -1.567702,20.5868 -1.567702,30.95625 0,28.31619 3.095871,56.50563 5.775924,84.66667 0.768509,8.07515 0.572978,16.25266 1.126917,24.34167 0.22686,3.31268 1.162607,6.50136 1.519933,9.78958 0.468657,4.31272 0.450829,8.64881 0.882359,12.96458 1.394311,13.94439 2.550927,27.85867 5.838387,41.53959 1.085173,4.51597 6.333125,10.48952 11.579397,9.4168 2.713934,-0.55494 4.434113,-3.63461 5.3416804,-5.97722 2.461526,-6.35371 1.5587226,-12.71027 1.5374868,-19.31458 -0.035867,-11.15633 -2.9132592,-22.02694 -5.3839422,-32.80834 -2.446701,-10.67673 -4.519378,-21.70268 -6.064794,-32.54375 -0.742558,-5.209 -1.265088,-10.43298 -2.257534,-15.61041 -0.414558,-2.16269 -1.271757,-4.55149 0.741687,-6.08542 4.127719,17.84182 11.7141105,34.75457 17.3751181,52.12292 5.9390108,18.22127 14.5897089,36.08042 23.7169619,52.91666 2.58064,4.76027 6.724816,17.7902 13.662167,12.27332 2.770066,-2.20287 0.857586,-8.72043 0.431385,-11.74415 -1.620864,-11.49951 -5.218415,-22.63638 -6.920007,-34.13125 -3.766388,-25.44326 -1.53521,-51.1681 -0.909085,-76.72917 0.480946,-19.63412 -0.863384,-39.24345 -2.950434,-58.7375 -1.092682,-10.20616 -0.768267,-20.21896 -1.018316,-30.42708 -0.125477,-5.12225 -0.795575,-10.22988 -1.044252,-15.34583 -0.158857,-3.26795 -0.564839,-6.70503 -1.713865,-9.78958 -0.675443,-1.81322 -1.997019,-3.2817 -4.113089,-2.44944 -2.599905,1.02257 -3.473286,6.12691 -3.972012,8.53485 -1.7971925,8.67719 -3.1758225,17.58749 -3.1758225,26.45833 0,11.89736 -0.813048,23.8367 -1.3333326,35.71875 -0.180754,4.12803 -0.869052,8.28554 -0.47384,12.43542 1.2723856,13.36052 2.6009226,26.55024 2.6009226,39.95208 0,4.79254 1.4761205,10.16001 0,14.81667 m 401.6374945,-7.9375 c 8.37513,0 15.78334,-1.09507 23.8125,-3.51329 5.31395,-1.60043 10.08401,-2.81854 9.21145,-9.71588 -0.44009,-3.47885 -4.41898,-4.35853 -7.35937,-4.4875 -3.31614,-0.14545 -6.7324,-0.5462 -10.05416,-0.23007 -3.49766,0.33284 -7.07535,1.23523 -10.58334,1.27697 -2.32343,0.0276 -6.56329,0.97796 -7.93013,-1.59791 -0.95169,-1.79346 -0.53653,-5.13903 -0.53653,-7.13232 v -16.13958 c 0,-14.69445 1.62018,-29.28489 2.62219,-43.92084 0.33053,-4.82774 0.72754,-9.99184 0.72754,-14.81666 0,-2.53035 -0.49532,-4.8716 -0.17473,-7.40834 7.48274,0 14.91259,-1.66008 22.225,-3.17417 3.18514,-0.65951 6.59223,-0.52815 9.525,-2.06053 4.28171,-2.23722 8.84041,-8.16385 4.44159,-12.70797 -2.32066,-2.39728 -6.58843,-2.88851 -9.73326,-3.26503 -8.4011,-1.00581 -16.95956,1.06397 -25.4,0.26071 -4.02068,-0.38265 -9.58643,-1.06025 -12.86026,2.0591 -1.30677,1.24513 -1.34701,3.71721 -1.62652,5.39415 -0.7683,4.60984 -1.30993,9.35966 -1.62916,14.02291 -2.16111,31.56728 0.44487,63.52699 2.59855,94.98542 1.27867,18.67752 2.83523,37.01332 5.50825,55.5625 1.67832,11.64648 3.47679,24.48897 7.90443,35.45416 2.95357,7.31472 6.13076,13.67194 13.33388,17.74362 2.7475,1.55306 6.75424,1.30638 9.78958,1.30638 8.94616,0 18.79582,-1.72975 26.45833,-6.50209 6.68299,-4.16228 17.03811,-8.53945 15.82604,-18.36874 -0.71992,-5.83808 -7.98982,-6.41886 -12.38645,-5.17837 -7.40956,2.09061 -13.99708,6.21949 -21.43125,8.35337 -1.96009,0.56263 -4.2991,2.229 -6.35,2.05624 -2.05983,-0.17351 -5.20996,-2.08775 -6.87917,-3.2832 -5.86695,-4.20179 -8.55645,-11.14793 -11.1125,-17.55846 -2.96061,-7.42524 -4.00266,-15.1602 -5.14038,-23.01875 -1.6448,-11.36109 -2.79712,-22.91257 -2.79712,-34.39583 m -485.510411,0.26458 h -0.264583 c -0.611106,-4.13786 -2.557241,-8.218 -3.874844,-12.17083 -3.623237,-10.8697 -8.267729,-21.17879 -13.254682,-31.48542 -6.56608,-13.57024 -11.90831,-27.72017 -18.5245,-41.275 -2.52069,-5.16422 -5.7841,-10.61727 -7.35995,-16.13958 -1.00289,-3.5145 -2.10407,-8.29872 -6.19852,-9.26042 v 18.25625 l -0.26846,38.36459 -1.07814,33.3375 -2.61828,37.30625 1.31904,25.92916 h -0.26458 c -1.75113,-13.84416 -6.25878,-27.53023 -8.83414,-41.275 -4.18777,-22.3502 -7.03504,-44.98428 -11.91564,-67.20416 -2.9157,-13.27427 -4.99782,-26.4511 -6.28263,-39.95209 -0.57483,-6.0404 -2.03027,-12.54521 -0.48426,-18.52083 h -0.26458 c -11.42113,19.57142 -20.84554,40.78687 -25.81668,62.97083 -7.22434,32.23906 -7.75931,65.49286 -14.24115,97.89584 -1.77002,8.84838 -3.45725,17.95908 -3.85259,26.9875 -0.16985,3.87889 0.67142,7.77551 0.50834,11.64166 -0.0466,1.10525 -0.15212,2.44775 -0.67023,3.43959 -0.49783,0.95299 -1.6073,1.75814 -1.60486,2.91041 0.007,3.15714 4.61809,8.60001 7.57717,9.30554 2.30566,0.54972 4.03989,-1.84729 5.82083,-2.8604 1.41551,-0.80524 3.00091,-1.04075 4.1874,-2.23956 4.65708,-4.70547 4.52578,-13.91756 4.79803,-20.08058 0.32465,-7.34945 1.19371,-15.14379 0.49466,-22.48958 -0.28859,-3.0326 -2.35286,-8.27504 -0.92931,-11.10841 1.21216,-2.41263 4.35659,-1.68302 6.53047,-1.96846 6.88307,-0.90374 13.76941,1.17062 20.6375,1.17062 1.79878,0 3.53466,-0.068 5.29167,-0.50242 0.77474,-0.19155 1.82019,-0.80706 2.61827,-0.49303 1.21339,0.47743 1.93939,2.55811 2.47332,3.64128 1.78273,3.61661 2.84148,7.51308 3.9414,11.37709 1.24321,4.3674 1.77768,8.90096 3.10742,13.22916 2.40592,7.83105 5.45462,14.93588 7.06842,23.01875 0.8198,4.10607 -0.23984,11.69419 3.82054,14.28608 1.89666,1.21072 4.50264,0.82308 6.60396,0.57162 2.05342,-0.24572 5.77496,-0.13681 7.30422,-1.70223 1.75944,-1.80102 1.42704,-4.78527 1.42704,-7.07005 0,-5.3952 -0.13653,-10.75496 -0.26846,-16.13958 -0.28964,-11.82055 -1.02596,-23.65156 -1.31517,-35.45417 -0.1362,-5.55887 0.39238,-11.13709 0.25683,-16.66875 -0.13656,-5.5733 -1.02511,-11.05914 -0.77945,-16.66875 0.22862,-5.22066 1.19652,-10.39919 1.5534,-15.61042 0.41418,-6.04804 -0.47602,-11.9442 0.28826,-17.99166 2.03257,2.10139 2.52403,6.53498 3.55167,9.26041 2.92437,7.7558 6.109335,15.42902 8.755742,23.28334 1.521814,4.51662 4.054452,8.62833 5.985584,12.96458 6.260979,14.0587 13.085547,28.22623 17.121153,43.12708 1.321705,4.88018 2.062455,10.07166 3.81196,14.81667 1.004307,2.7239 3.05415,5.15054 4.165557,7.9375 1.236455,3.10054 3.066834,7.96723 6.879166,8.41746 4.165896,0.49201 5.740121,-8.76875 5.816958,-11.85704 0.345667,-13.89234 -0.172277,-27.67294 -0.779458,-41.53959 -1.821417,-41.59668 0.735775,-83.82732 -5.071994,-125.14791 -1.391598,-9.90077 -3.470944,-19.97603 -8.163503,-28.83959 -1.218854,-2.30224 -3.753809,-4.101 -5.471727,-6.06051 -0.589935,-0.67289 -1.453408,-1.44751 -2.434541,-1.24921 -1.403952,0.28375 -1.249157,3.04493 -1.371509,4.13473 -0.488092,4.34744 -1.045059,8.58271 -1.045059,12.96458 0,18.57385 2.644655,37.00879 2.645833,55.5625 7.51e-4,11.78182 -1.856338,23.44117 -2.370833,35.18958 -0.261047,5.96102 0.567496,11.83213 1.3125,17.72708 m 416.983331,-33.3375 -3.70417,-1.85208 -0.26458,1.32292 c -0.44513,-1.35133 0.40456,-3.55347 0.50549,-5.02709 0.22928,-3.34743 0.22928,-6.97131 0,-10.31875 -1.01179,-14.77245 -1.00049,-29.7189 -2.4025,-44.45 -0.52713,-5.53855 -1.27799,-11.37273 -1.27799,-16.93333 0,-2.12049 -0.33697,-4.61055 0.5645,-6.59927 0.61524,-1.35724 2.10801,-1.33185 3.40425,-1.33802 3.1033,-0.0148 6.00176,0.79406 8.15331,3.17867 2.77574,3.07646 4.31285,7.7644 5.60502,11.63779 4.55101,13.64222 3.01002,29.40285 -2.17034,42.59791 -2.20672,5.62087 -4.54579,11.20857 -6.47293,16.93334 -1.29966,3.86073 -2.53802,6.78103 -1.94006,10.84791 M 84.259124,354.96144 c -5.341825,0.4668 -8.699437,6.91187 -11.166179,10.97265 -7.39803,12.17879 -10.681518,24.41813 -13.020329,38.36458 -2.618574,15.61468 -0.634377,31.73971 0.858265,47.36042 2.752836,28.80866 6.392746,58.11819 17.962259,84.93125 6.338728,14.69041 12.65527,31.83967 30.76598,33.87994 2.66938,0.30071 5.29348,0.4063 7.9375,-0.18925 4.19829,-0.94565 6.59182,-8.35264 3.47818,-11.80989 -0.91961,-1.02109 -3.04506,-1.48935 -4.27193,-2.10238 -3.15471,-1.57634 -6.51778,-3.10128 -9.26041,-5.34923 -3.63063,-2.97579 -7.29872,-6.36861 -9.666694,-10.46044 -0.91939,-1.58873 -1.167236,-3.43256 -2.024586,-5.02709 -2.71014,-5.04055 -5.30843,-9.52643 -6.94186,-15.08125 -2.445066,-8.31493 -6.164606,-16.20057 -8.384981,-24.60625 -2.783616,-10.538 -4.323961,-21.24445 -5.824709,-32.01458 -1.853892,-13.30439 -3.405089,-26.24325 -3.405089,-39.6875 0,-13.23369 -0.440251,-26.48436 4.875606,-38.89375 1.121185,-2.61733 3.204521,-5.66542 5.707921,-7.11599 4.252809,-2.46427 8.797462,-2.60423 11.552042,-7.43609 3.45712,-6.0642 1.88532,-11.40123 -4.40849,-14.35875 -1.533656,-0.72068 -2.989801,-1.53132 -4.762496,-1.3764 m -40.216666,0.55713 c -4.465813,0.58637 -5.831056,7.08441 -6.610708,10.6801 -2.498087,11.52112 -2.114115,23.52965 -3.223786,35.18958 -0.897506,9.43065 0.04491,19.10607 0.04491,28.575 0,34.71849 3.709884,68.83803 8.659598,103.1875 1.231481,8.54612 2.81903,16.95204 4.568745,25.4 0.655758,3.16609 0.597703,7.62063 2.008679,10.51067 0.764553,1.56599 6.153791,3.12879 7.781728,2.93388 4.286366,-0.5132 4.233333,-6.17714 4.233333,-9.4758 0,-10.05936 -1.103647,-20.49584 -2.710961,-30.42708 -3.395045,-20.97711 -2.194747,-42.36297 -3.120288,-63.5 -0.998227,-22.79701 -2.370834,-45.69099 -2.370834,-68.52708 0,-4.78862 -0.708128,-9.51937 -1.034659,-14.2875 -0.47875,-6.99097 -0.557911,-13.95083 -1.726316,-20.90209 -0.482141,-2.86841 -2.513961,-9.88048 -6.499441,-9.35718 m -205.581248,37.93218 6.92387,60.58959 3.65946,30.69166 c -6.02114,-0.47917 -12.31189,-0.27913 -18.25625,-0.98278 -1.46028,-0.17286 -4.87591,0.1359 -5.81328,-1.24841 -0.87345,-1.28994 0.4537,-4.30846 0.73332,-5.70631 1.02154,-5.10673 2.19507,-10.209 3.02842,-15.34583 2.80854,-17.31215 2.3677,-34.94567 6.31632,-52.12292 0.80217,-3.48958 1.64071,-7.04469 2.19363,-10.58333 0.26662,-1.70634 0.10788,-3.88536 1.21451,-5.29167 z"
       id="path1" /></g></svg>
